<?xml version="1.0" standalone="no"?>
<!DOCTYPE svg PUBLIC "-//W3C//DTD SVG 20010904//EN"
 "http://www.w3.org/TR/2001/REC-SVG-20010904/DTD/svg10.dtd">
<svg version="1.0" xmlns="http://www.w3.org/2000/svg"
 width="604.000000pt" height="413.000000pt" viewBox="0 0 604.000000 413.000000"
 preserveAspectRatio="xMidYMid meet">

<g transform="translate(0.000000,413.000000) scale(0.100000,-0.100000)"
fill="#000000" stroke="none">
<path d="M2243 3533 l37 -4 0 -454 c0 -424 -1 -454 -17 -457 -26 -6 517 -20
608 -16 l76 3 -134 235 c-198 346 -384 663 -401 683 -13 14 -31 17 -111 15
-53 -1 -79 -3 -58 -5z"/>
<path d="M3276 3488 c-47 -74 -385 -654 -393 -674 -3 -9 0 -20 8 -25 8 -5 118
-8 244 -8 127 0 224 3 218 6 -10 4 -13 88 -13 373 l0 369 38 4 c30 3 28 4 -16
5 l-52 2 -34 -52z"/>
<path d="M4611 2489 c-227 -44 -336 -278 -202 -431 48 -54 105 -86 240 -132
132 -46 177 -71 192 -109 35 -85 -102 -143 -209 -88 -42 22 -86 68 -97 102 -4
13 -12 18 -22 15 -8 -3 -51 -15 -96 -26 -45 -12 -88 -23 -95 -25 -20 -7 43
-120 96 -173 26 -25 76 -59 112 -76 62 -29 71 -31 185 -31 100 1 129 5 176 23
119 47 191 146 191 261 0 146 -92 230 -347 322 -49 18 -102 41 -117 51 -58 40
-41 108 31 128 72 19 152 -12 191 -76 12 -18 27 -34 33 -34 17 0 188 48 195
54 11 12 -34 91 -79 137 -95 98 -232 137 -378 108z"/>
<path d="M620 2005 l0 -475 115 0 115 0 0 175 0 175 175 0 175 0 0 100 0 100
-175 0 -175 0 0 95 0 95 225 0 225 0 0 105 0 105 -340 0 -340 0 0 -475z"/>
<path d="M1413 2005 l-191 -475 121 0 122 0 25 73 25 72 194 0 194 0 25 -72
26 -73 118 0 c65 0 118 3 118 7 0 4 -84 218 -187 475 l-188 468 -105 0 -106 0
-191 -475z m357 39 c30 -86 57 -160 58 -165 2 -5 -51 -9 -118 -9 -112 0 -122
1 -115 18 28 73 95 263 100 285 4 15 10 27 14 27 3 0 31 -71 61 -156z"/>
<path d="M2287 2473 c-4 -3 -7 -217 -7 -475 l0 -468 110 0 110 0 0 280 c0 254
5 313 24 264 3 -9 45 -83 93 -165 l87 -149 56 0 57 0 99 169 99 170 3 -285 2
-284 110 0 110 0 -2 473 -3 472 -105 3 -105 3 -132 -217 -131 -216 -24 39
c-13 21 -73 118 -134 216 l-109 177 -101 0 c-55 0 -104 -3 -107 -7z"/>
<path d="M3678 2412 c-225 -563 -348 -873 -348 -877 0 -3 53 -5 118 -5 l117 0
28 75 28 75 192 -2 192 -3 25 -70 25 -70 122 -3 121 -3 -153 383 c-83 211
-169 425 -190 476 l-37 92 -107 0 -106 0 -27 -68z m192 -364 c29 -84 55 -159
58 -165 3 -10 -24 -13 -113 -13 -117 0 -117 0 -112 23 13 51 102 306 108 307
4 0 30 -69 59 -152z"/>
<path d="M2770 1395 c0 -10 88 -166 280 -495 101 -173 200 -343 219 -377 l36
-62 85 1 c82 2 82 2 18 5 l-68 4 -2 462 -3 462 -282 3 c-156 1 -283 0 -283 -3z"/>
<path d="M2415 1220 c-88 -3 -154 -7 -147 -8 9 -2 12 -84 12 -371 l0 -370 -52
-4 c-29 -2 -1 -4 62 -5 l115 -1 115 197 c198 339 320 555 320 564 0 8 -154 8
-425 -2z"/>
</g>
</svg>
